<?xml version="1.0" encoding="UTF-8"?>
<!DOCTYPE svg PUBLIC "-//W3C//DTD SVG 1.1//EN" "http://www.w3.org/Graphics/SVG/1.1/DTD/svg11.dtd">
<svg xmlns="http://www.w3.org/2000/svg" version="1.1" width="705px" height="324px" style="shape-rendering:geometricPrecision; text-rendering:geometricPrecision; image-rendering:optimizeQuality; fill-rule:evenodd; clip-rule:evenodd" xmlns:xlink="http://www.w3.org/1999/xlink">
  <g>
    <path style="opacity:0.974" fill="#fe4d77" d="M 28.5,-0.5 C 44.1667,-0.5 59.8333,-0.5 75.5,-0.5C 77.7837,26.2202 80.617,52.8869 84,79.5C 98.4466,52.938 112.613,26.2714 126.5,-0.5C 142.167,-0.5 157.833,-0.5 173.5,-0.5C 164.325,44.5327 154.992,89.5327 145.5,134.5C 133.833,134.5 122.167,134.5 110.5,134.5C 115.87,110.481 121.036,86.4811 126,62.5C 113.548,86.5723 100.715,110.406 87.5,134C 78.5,134.667 69.5,134.667 60.5,134C 57.1996,109.09 53.6996,84.2571 50,59.5C 45.5489,84.2068 40.8822,108.873 36,133.5C 30.245,134.156 24.4116,134.49 18.5,134.5C 12.3344,134.648 6.33441,134.148 0.5,133C 10.5331,88.6688 19.8664,44.1688 28.5,-0.5 Z"/>
  </g>
  <g>
    <path style="opacity:0.974" fill="#fe4d77" d="M 189.5,-0.5 C 201.5,-0.5 213.5,-0.5 225.5,-0.5C 218.85,29.5813 212.517,59.7479 206.5,90C 209.157,99.7643 215.657,103.931 226,102.5C 235.582,103.544 242.582,99.8774 247,91.5C 254.79,61.0481 261.624,30.3814 267.5,-0.5C 279.5,-0.5 291.5,-0.5 303.5,-0.5C 297.654,28.8866 291.487,58.22 285,87.5C 276.975,119.024 256.642,134.691 224,134.5C 211.463,134.496 199.63,131.662 188.5,126C 173.026,114.978 167.526,100.145 172,81.5C 177.649,54.0849 183.482,26.7515 189.5,-0.5 Z"/>
  </g>
  <g>
    <path style="opacity:0.974" fill="#fe4d77" d="M 320.5,-0.5 C 332.5,-0.5 344.5,-0.5 356.5,-0.5C 366.032,25.593 375.865,51.593 386,77.5C 391.49,51.552 396.656,25.552 401.5,-0.5C 413.167,-0.5 424.833,-0.5 436.5,-0.5C 427.065,44.4025 417.399,89.2358 407.5,134C 396.152,134.832 384.819,134.666 373.5,133.5C 363.235,107.873 353.069,82.2063 343,56.5C 337.794,82.1943 332.461,107.861 327,133.5C 315.581,134.488 304.081,134.821 292.5,134.5C 301.578,89.442 310.912,44.442 320.5,-0.5 Z"/>
  </g>
  <g>
    <path style="opacity:0.975" fill="#fe4d77" d="M 453.5,-0.5 C 474.5,-0.5 495.5,-0.5 516.5,-0.5C 546.371,4.55623 561.371,22.3896 561.5,53C 562.261,79.4122 552.927,101.412 533.5,119C 523.348,126.406 512.014,131.072 499.5,133C 474.853,134.741 450.186,134.907 425.5,133.5C 435.218,88.9074 444.552,44.2407 453.5,-0.5 Z M 484.5,31.5 C 492.507,31.3336 500.507,31.5003 508.5,32C 517.695,34.2003 522.862,40.0337 524,49.5C 526.107,87.8919 507.94,105.559 469.5,102.5C 474.032,78.7103 479.032,55.0436 484.5,31.5 Z"/>
  </g>
  <g>
    <path style="opacity:0.973" fill="#fe4d77" d="M 627.5,-0.5 C 635.833,-0.5 644.167,-0.5 652.5,-0.5C 677.836,4.00306 692.669,19.0031 697,44.5C 700.458,74.1331 691.625,99.2998 670.5,120C 648.126,135.191 624.126,138.191 598.5,129C 578.068,117.65 568.401,100.15 569.5,76.5C 570.047,36.3297 589.38,10.663 627.5,-0.5 Z M 638.5,29.5 C 651.687,29.8522 659.52,36.5188 662,49.5C 664.186,67.2704 659.353,82.7704 647.5,96C 637.342,104.227 626.342,105.56 614.5,100C 607.61,93.5461 604.277,85.5461 604.5,76C 604.495,58.6805 611.162,44.6805 624.5,34C 629.002,31.5532 633.669,30.0532 638.5,29.5 Z"/>
  </g>
  <g>
    <path style="opacity:0.974" fill="#fefffe" d="M 75.5,323.5 C 62.5,323.5 49.5,323.5 36.5,323.5C 23.049,321.69 12.2157,315.356 4,304.5C 1.95607,299.873 0.456073,295.206 -0.5,290.5C -0.5,287.5 -0.5,284.5 -0.5,281.5C 0.205242,278.772 0.871909,275.939 1.5,273C 15.496,272.5 29.496,272.333 43.5,272.5C 42.1193,287.291 48.9527,294.624 64,294.5C 74.6704,294.173 82.6704,289.506 88,280.5C 89.3741,271.519 85.5408,266.019 76.5,264C 61.9157,260.472 47.5824,256.138 33.5,251C 18.7633,243.692 12.93,231.859 16,215.5C 21.8982,190.603 37.3982,175.436 62.5,170C 81.9319,165.086 101.265,165.419 120.5,171C 140.815,178.797 147.982,193.297 142,214.5C 127.912,215.49 113.745,215.824 99.5,215.5C 100.735,203.066 95.0681,197.066 82.5,197.5C 75.0964,197.355 68.9297,200.022 64,205.5C 59.9572,212.071 61.1239,217.571 67.5,222C 69.8333,223 72.1667,224 74.5,225C 86.8771,228.178 99.2104,231.511 111.5,235C 132.451,243.408 139.617,258.575 133,280.5C 127.409,297.093 116.576,308.926 100.5,316C 92.2766,319.3 83.9433,321.8 75.5,323.5 Z"/>
  </g>
  <g>
    <path style="opacity:0.976" fill="#fefffe" d="M 178.5,170.5 C 216.833,170.5 255.167,170.5 293.5,170.5C 291.944,180.445 289.944,190.279 287.5,200C 263.169,200.5 238.836,200.667 214.5,200.5C 212.976,210.264 210.976,219.931 208.5,229.5C 230.833,230.167 253.167,230.833 275.5,231.5C 273.024,241.069 271.024,250.736 269.5,260.5C 247.164,260.333 224.831,260.5 202.5,261C 200.107,270.793 197.774,280.627 195.5,290.5C 219.833,291.167 244.167,291.833 268.5,292.5C 265.987,302.065 263.987,311.732 262.5,321.5C 223.833,321.5 185.167,321.5 146.5,321.5C 157.01,271.128 167.677,220.795 178.5,170.5 Z"/>
  </g>
  <g>
    <path style="opacity:0.975" fill="#fefffe" d="M 316.5,170.5 C 336.409,170.174 356.243,170.507 376,171.5C 384.539,207.863 393.206,244.196 402,280.5C 409.516,244.086 417.349,207.752 425.5,171.5C 438.149,170.501 450.816,170.168 463.5,170.5C 453.039,220.806 442.705,271.139 432.5,321.5C 412.822,321.833 393.155,321.5 373.5,320.5C 364.668,283.172 355.835,245.839 347,208.5C 338.716,246.09 330.882,283.756 323.5,321.5C 310.5,321.5 297.5,321.5 284.5,321.5C 294.912,271.107 305.579,220.773 316.5,170.5 Z"/>
  </g>
  <g>
    <path style="opacity:0.975" fill="#fefffe" d="M 536.5,170.5 C 554.167,170.5 571.833,170.5 589.5,170.5C 598.629,220.81 607.629,271.144 616.5,321.5C 600.5,321.5 584.5,321.5 568.5,321.5C 567.531,311.578 566.198,301.745 564.5,292C 544.492,291.167 524.492,291.334 504.5,292.5C 499.5,301.833 494.5,311.167 489.5,320.5C 475.167,321.833 460.833,321.833 446.5,320.5C 476.952,270.727 506.952,220.727 536.5,170.5 Z M 554.5,201.5 C 557.029,221.303 559.029,241.303 560.5,261.5C 547.829,261.667 535.162,261.5 522.5,261C 533.306,241.219 543.973,221.386 554.5,201.5 Z"/>
  </g>
  <g>
    <path style="opacity:0.974" fill="#fefffe" d="M 704.5,170.5 C 704.5,173.833 704.5,177.167 704.5,180.5C 693.754,227.224 683.754,274.224 674.5,321.5C 660.167,321.5 645.833,321.5 631.5,321.5C 641.933,271.502 652.433,221.502 663,171.5C 676.754,170.51 690.588,170.177 704.5,170.5 Z"/>
  </g>
</svg>
